<svg width="17" height="14" viewBox="0 0 17 14" fill="none" xmlns="http://www.w3.org/2000/svg">
<path d="M3.39298 6.44036C4.0181 7.06548 4.86594 7.41667 5.75 7.41667C6.63405 7.41667 7.4819 7.06548 8.10702 6.44036C8.73214 5.81523 9.08333 4.96739 9.08333 4.08333C9.08333 3.19928 8.73214 2.35143 8.10702 1.72631C7.4819 1.10119 6.63405 0.75 5.75 0.75C4.86594 0.75 4.0181 1.10119 3.39298 1.72631C2.76786 2.35143 2.41667 3.19928 2.41667 4.08333C2.41667 4.96739 2.76786 5.81523 3.39298 6.44036Z" fill="white"/>
<path d="M15.75 13.25C15.75 11.7983 14.3583 10.5642 12.4167 10.1058M10.75 13.25C10.75 11.4083 8.51167 9.91667 5.75 9.91667C2.98833 9.91667 0.75 11.4083 0.75 13.25M10.75 7.41667C11.6341 7.41667 12.4819 7.06548 13.107 6.44036C13.7321 5.81523 14.0833 4.96739 14.0833 4.08333C14.0833 3.19928 13.7321 2.35143 13.107 1.72631C12.4819 1.10119 11.6341 0.75 10.75 0.75M5.75 7.41667C4.86594 7.41667 4.0181 7.06548 3.39298 6.44036C2.76786 5.81523 2.41667 4.96739 2.41667 4.08333C2.41667 3.19928 2.76786 2.35143 3.39298 1.72631C4.0181 1.10119 4.86594 0.75 5.75 0.75C6.63405 0.75 7.4819 1.10119 8.10702 1.72631C8.73214 2.35143 9.08333 3.19928 9.08333 4.08333C9.08333 4.96739 8.73214 5.81523 8.10702 6.44036C7.4819 7.06548 6.63405 7.41667 5.75 7.41667Z" stroke="black" stroke-width="1.5" stroke-linecap="round" stroke-linejoin="round"/>
</svg>
