<svg width="17" height="17" viewBox="0 0 17 17" fill="none" xmlns="http://www.w3.org/2000/svg">
<path d="M14.0833 15.75H4.08333C3.19928 15.75 2.35143 15.3988 1.72631 14.7737C1.10119 14.1486 0.75 13.3007 0.75 12.4167V2.41667C0.75 1.97464 0.925595 1.55072 1.23816 1.23816C1.55072 0.925595 1.97464 0.75 2.41667 0.75H10.75C11.192 0.75 11.616 0.925595 11.9285 1.23816C12.2411 1.55072 12.4167 1.97464 12.4167 2.41667V13.25C12.4167 14.6308 12.7025 15.75 14.0833 15.75Z" fill="white" stroke="black" stroke-width="1.5" stroke-linecap="round" stroke-linejoin="round"/>
<path d="M15.7503 6.58335C15.7503 6.14133 15.5747 5.7174 15.2622 5.40484C14.9496 5.09228 14.5257 4.91669 14.0837 4.91669H12.417V13.6667C12.417 14.8167 12.9337 15.75 14.0837 15.75C15.2337 15.75 15.7503 14.8167 15.7503 13.6667V6.58335Z" fill="white" stroke="black" stroke-width="1.5" stroke-linecap="round" stroke-linejoin="round"/>
<path d="M9.08301 7.41665H4.08301M9.08301 4.08331H4.08301M6.58301 10.75H4.08301" stroke="black" stroke-width="1.5" stroke-linecap="round"/>
</svg>
