<svg width="15" height="20" viewBox="0 0 15 20" fill="none" xmlns="http://www.w3.org/2000/svg">
<mask id="path-1-inside-1_99_307" fill="white">
<path d="M13.7891 1.25977H15V20H0V1.25977H1.23047V0H2.48047V1.25977H5V0H6.25V1.25977H8.76953V0H10.0195V1.25977H12.5391V0H13.7891V1.25977ZM13.75 18.75V2.50977H1.25V18.75H13.75ZM11.25 5.00977V6.25977H3.75V5.00977H11.25ZM3.75 16.2695V15.0195H11.25V16.2695H3.75ZM3.75 11.2598V10.0098H11.25V11.2598H3.75Z"/>
</mask>
<path d="M13.7891 1.25977H12.2891V2.75977H13.7891V1.25977ZM15 1.25977H16.5V-0.240234H15V1.25977ZM15 20V21.5H16.5V20H15ZM0 20H-1.5V21.5H0V20ZM0 1.25977V-0.240234H-1.5V1.25977H0ZM1.23047 1.25977V2.75977H2.73047V1.25977H1.23047ZM1.23047 0V-1.5H-0.269531V0H1.23047ZM2.48047 0H3.98047V-1.5H2.48047V0ZM2.48047 1.25977H0.980469V2.75977H2.48047V1.25977ZM5 1.25977V2.75977H6.5V1.25977H5ZM5 0V-1.5H3.5V0H5ZM6.25 0H7.75V-1.5H6.25V0ZM6.25 1.25977H4.75V2.75977H6.25V1.25977ZM8.76953 1.25977V2.75977H10.2695V1.25977H8.76953ZM8.76953 0V-1.5H7.26953V0H8.76953ZM10.0195 0H11.5195V-1.5H10.0195V0ZM10.0195 1.25977H8.51953V2.75977H10.0195V1.25977ZM12.5391 1.25977V2.75977H14.0391V1.25977H12.5391ZM12.5391 0V-1.5H11.0391V0H12.5391ZM13.7891 0H15.2891V-1.5H13.7891V0ZM13.75 18.75V20.25H15.25V18.75H13.75ZM13.75 2.50977H15.25V1.00977H13.75V2.50977ZM1.25 2.50977V1.00977H-0.25V2.50977H1.25ZM1.25 18.75H-0.25V20.25H1.25V18.75ZM11.25 5.00977H12.75V3.50977H11.25V5.00977ZM11.25 6.25977V7.75977H12.75V6.25977H11.25ZM3.75 6.25977H2.25V7.75977H3.75V6.25977ZM3.75 5.00977V3.50977H2.25V5.00977H3.75ZM3.75 16.2695H2.25V17.7695H3.75V16.2695ZM3.75 15.0195V13.5195H2.25V15.0195H3.75ZM11.25 15.0195H12.75V13.5195H11.25V15.0195ZM11.25 16.2695V17.7695H12.75V16.2695H11.25ZM3.75 11.2598H2.25V12.7598H3.75V11.2598ZM3.75 10.0098V8.50977H2.25V10.0098H3.75ZM11.25 10.0098H12.75V8.50977H11.25V10.0098ZM11.25 11.2598V12.7598H12.75V11.2598H11.25ZM13.7891 1.25977V2.75977H15V1.25977V-0.240234H13.7891V1.25977ZM15 1.25977H13.5V20H15H16.5V1.25977H15ZM15 20V18.5H0V20V21.5H15V20ZM0 20H1.5V1.25977H0H-1.5V20H0ZM0 1.25977V2.75977H1.23047V1.25977V-0.240234H0V1.25977ZM1.23047 1.25977H2.73047V0H1.23047H-0.269531V1.25977H1.23047ZM1.23047 0V1.5H2.48047V0V-1.5H1.23047V0ZM2.48047 0H0.980469V1.25977H2.48047H3.98047V0H2.48047ZM2.48047 1.25977V2.75977H5V1.25977V-0.240234H2.48047V1.25977ZM5 1.25977H6.5V0H5H3.5V1.25977H5ZM5 0V1.5H6.25V0V-1.5H5V0ZM6.25 0H4.75V1.25977H6.25H7.75V0H6.25ZM6.25 1.25977V2.75977H8.76953V1.25977V-0.240234H6.25V1.25977ZM8.76953 1.25977H10.2695V0H8.76953H7.26953V1.25977H8.76953ZM8.76953 0V1.5H10.0195V0V-1.5H8.76953V0ZM10.0195 0H8.51953V1.25977H10.0195H11.5195V0H10.0195ZM10.0195 1.25977V2.75977H12.5391V1.25977V-0.240234H10.0195V1.25977ZM12.5391 1.25977H14.0391V0H12.5391H11.0391V1.25977H12.5391ZM12.5391 0V1.5H13.7891V0V-1.5H12.5391V0ZM13.7891 0H12.2891V1.25977H13.7891H15.2891V0H13.7891ZM13.75 18.75H15.25V2.50977H13.75H12.25V18.75H13.75ZM13.75 2.50977V1.00977H1.25V2.50977V4.00977H13.75V2.50977ZM1.25 2.50977H-0.25V18.75H1.25H2.75V2.50977H1.25ZM1.25 18.75V20.25H13.75V18.75V17.25H1.25V18.75ZM11.25 5.00977H9.75V6.25977H11.25H12.75V5.00977H11.25ZM11.25 6.25977V4.75977H3.75V6.25977V7.75977H11.25V6.25977ZM3.75 6.25977H5.25V5.00977H3.75H2.25V6.25977H3.75ZM3.75 5.00977V6.50977H11.25V5.00977V3.50977H3.75V5.00977ZM3.75 16.2695H5.25V15.0195H3.75H2.25V16.2695H3.75ZM3.75 15.0195V16.5195H11.25V15.0195V13.5195H3.75V15.0195ZM11.25 15.0195H9.75V16.2695H11.25H12.75V15.0195H11.25ZM11.25 16.2695V14.7695H3.75V16.2695V17.7695H11.25V16.2695ZM3.75 11.2598H5.25V10.0098H3.75H2.25V11.2598H3.75ZM3.75 10.0098V11.5098H11.25V10.0098V8.50977H3.75V10.0098ZM11.25 10.0098H9.75V11.2598H11.25H12.75V10.0098H11.25ZM11.25 11.2598V9.75977H3.75V11.2598V12.7598H11.25V11.2598Z" fill="#131927" mask="url(#path-1-inside-1_99_307)"/>
</svg>
